# xmcd CD database file
#
# Track frame offsets:
#	150
#	21793
#	34731
#	56374
#
# Disc length: 922 seconds
#
# Revision: 0
# Processed by: cddbd v1.5.1PL2 Copyright (c) Steve Scherf et al.
# Submitted via: CDex 1.51
#
DISCID=27039804
DTITLE=みずき - 永遠のストーリー
DYEAR=2004
DGENRE=Pop
TTITLE0=永遠のストーリー
TTITLE1=きみのもとへ
TTITLE2=永遠のストーリー(カラオケ)
TTITLE3=きみのもとへ(カラオケ)
EXTD=YEAR: 2004
EXTT0=
EXTT1=
EXTT2=
EXTT3=
PLAYORDER=
